<?xml version="1.0" encoding="UTF-8" standalone="no"?>
<!DOCTYPE svg PUBLIC "-//W3C//DTD SVG 1.1//EN"
 "http://www.w3.org/Graphics/SVG/1.1/DTD/svg11.dtd">
<!-- Generated by graphviz version 2.38.0 (20140413.2041)
 -->
<!-- Title: %3 Pages: 1 -->
<svg width="892pt" height="610pt"
 viewBox="0.00 0.00 892.11 609.66" xmlns="http://www.w3.org/2000/svg" xmlns:xlink="http://www.w3.org/1999/xlink">
<g id="graph0" class="graph" transform="scale(1 1) rotate(0) translate(4 605.66)">
<title>%3</title>
<polygon fill="white" fill-opacity="0" stroke="none" points="-4,4 -4,-605.66 888.115,-605.66 888.115,4 -4,4"/>
<!-- q -->
<g id="node1" class="node"><title>q</title>
<polygon fill="none" stroke="black" points="305.898,-586.786 215.142,-550.786 305.898,-514.786 396.654,-550.786 305.898,-586.786"/>
<text text-anchor="middle" x="305.898" y="-553.586" font-family="Times,serif" font-size="14.00">Do you care?</text>
<text text-anchor="middle" x="305.898" y="-539.586" font-family="Times,serif" font-size="14.00"> &#160;&#160;&#160;about me?</text>
</g>
<!-- info -->
<g id="node2" class="node"><title>info</title>
<polygon fill="none" stroke="black" points="331.123,-449.912 118.674,-449.912 118.674,-273.912 331.123,-273.912 331.123,-449.912"/>
<text text-anchor="middle" x="224.898" y="-434.712" font-family="Times,serif" font-size="14.00">Cool, check out some links:</text>
<text text-anchor="middle" x="224.898" y="-420.712" font-family="Times,serif" font-size="14.00"> &#160;&#160;&#160;1. No&#45;brainer social networking:</text>
<text text-anchor="middle" x="224.898" y="-406.712" font-family="Times,serif" font-size="14.00"> &#160;&#160;&#160;Facebook,</text>
<text text-anchor="middle" x="224.898" y="-392.712" font-family="Times,serif" font-size="14.00"> &#160;&#160;&#160;Twitter,</text>
<text text-anchor="middle" x="224.898" y="-378.712" font-family="Times,serif" font-size="14.00"> &#160;&#160;&#160;and Instagram.</text>
<text text-anchor="middle" x="224.898" y="-364.712" font-family="Times,serif" font-size="14.00"> &#160;&#160;&#160;2. Open sourcing all</text>
<text text-anchor="middle" x="224.898" y="-350.712" font-family="Times,serif" font-size="14.00"> &#160;&#160;&#160;my non&#45;confidential</text>
<text text-anchor="middle" x="224.898" y="-336.712" font-family="Times,serif" font-size="14.00"> &#160;&#160;&#160;work on Github.</text>
<text text-anchor="middle" x="224.898" y="-322.712" font-family="Times,serif" font-size="14.00"> &#160;&#160;&#160;3. Hyperlinking and</text>
<text text-anchor="middle" x="224.898" y="-308.712" font-family="Times,serif" font-size="14.00"> &#160;&#160;&#160;researching on Arena.</text>
<text text-anchor="middle" x="224.898" y="-294.712" font-family="Times,serif" font-size="14.00"> &#160;&#160;&#160;4. I record process n’</text>
<text text-anchor="middle" x="224.898" y="-280.712" font-family="Times,serif" font-size="14.00"> &#160;&#160;&#160;sketches n’ more on Tumblr.</text>
</g>
<!-- q&#45;&gt;info -->
<g id="edge1" class="edge"><title>q&#45;&gt;info</title>
<path fill="none" stroke="black" d="M292.884,-519.761C285.684,-503.15 276.29,-481.477 266.793,-459.567"/>
<polygon fill="black" stroke="black" points="269.911,-457.96 262.723,-450.176 263.489,-460.744 269.911,-457.96"/>
<text text-anchor="middle" x="285.229" y="-470.712" font-family="Times,serif" font-size="14.00">yes</text>
</g>
<!-- end -->
<g id="node3" class="node"><title>end</title>
<polygon fill="none" stroke="black" points="390.407,-343.961 392.73,-344.06 395.029,-344.207 397.295,-344.403 399.518,-344.647 401.69,-344.938 403.801,-345.276 405.844,-345.66 407.811,-346.088 409.695,-346.559 411.489,-347.072 413.186,-347.626 414.781,-348.22 416.269,-348.85 417.646,-349.517 418.907,-350.218 420.05,-350.95 421.072,-351.713 421.972,-352.503 422.747,-353.32 423.399,-354.16 423.926,-355.021 424.33,-355.901 424.611,-356.798 424.772,-357.708 424.816,-358.63 424.744,-359.561 424.561,-360.499 424.269,-361.44 423.874,-362.383 423.378,-363.324 422.788,-364.262 422.107,-365.193 421.341,-366.115 420.495,-367.026 419.573,-367.922 418.581,-368.802 417.525,-369.664 416.408,-370.503 415.237,-371.32 414.016,-372.11 412.75,-372.873 411.442,-373.606 410.098,-374.306 408.721,-374.973 407.316,-375.604 405.885,-376.197 404.433,-376.751 402.961,-377.264 401.473,-377.736 399.97,-378.164 398.457,-378.547 396.933,-378.885 395.402,-379.176 393.864,-379.42 392.321,-379.616 390.774,-379.764 389.225,-379.862 387.674,-379.912 386.123,-379.912 384.572,-379.862 383.023,-379.764 381.476,-379.616 379.933,-379.42 378.395,-379.176 376.864,-378.885 375.34,-378.547 373.826,-378.164 372.324,-377.736 370.836,-377.264 369.364,-376.751 367.912,-376.197 366.481,-375.604 365.075,-374.973 363.699,-374.306 362.355,-373.606 361.047,-372.873 359.781,-372.11 358.56,-371.32 357.388,-370.503 356.272,-369.664 355.216,-368.802 354.224,-367.922 353.302,-367.026 352.456,-366.115 351.69,-365.193 351.009,-364.262 350.418,-363.324 349.923,-362.383 349.528,-361.44 349.236,-360.499 349.053,-359.561 348.981,-358.63 349.024,-357.708 349.186,-356.798 349.467,-355.901 349.871,-355.021 350.398,-354.16 351.05,-353.32 351.825,-352.503 352.725,-351.713 353.747,-350.95 354.89,-350.218 356.151,-349.517 357.528,-348.85 359.016,-348.22 360.611,-347.626 362.308,-347.072 364.102,-346.559 365.986,-346.088 367.953,-345.66 369.996,-345.276 372.107,-344.938 374.279,-344.647 376.502,-344.403 378.768,-344.207 381.067,-344.06 383.39,-343.961 385.727,-343.912 388.07,-343.912 390.407,-343.961"/>
<text text-anchor="middle" x="386.898" y="-357.712" font-family="Times,serif" font-size="14.00">See ya.</text>
</g>
<!-- q&#45;&gt;end -->
<g id="edge2" class="edge"><title>q&#45;&gt;end</title>
<path fill="none" stroke="black" d="M318.912,-519.761C334.624,-483.514 360.784,-423.161 375.656,-388.849"/>
<polygon fill="black" stroke="black" points="378.943,-390.065 379.709,-379.498 372.521,-387.281 378.943,-390.065"/>
<text text-anchor="middle" x="348.898" y="-470.712" font-family="Times,serif" font-size="14.00">no</text>
</g>
<!-- edouard -->
<g id="node4" class="node"><title>edouard</title>
<ellipse fill="none" stroke="black" cx="648.898" cy="-550.786" rx="50.7483" ry="50.7483"/>
<text text-anchor="middle" x="648.898" y="-546.586" font-family="Times,serif" font-size="14.00">Édouard U.</text>
</g>
<!-- role -->
<g id="node5" class="node"><title>role</title>
<polygon fill="none" stroke="black" points="648.898,-397.912 442.691,-361.912 648.898,-325.912 855.106,-361.912 648.898,-397.912"/>
<text text-anchor="middle" x="648.898" y="-364.712" font-family="Times,serif" font-size="14.00">Physical–digital product designer,</text>
<text text-anchor="middle" x="648.898" y="-350.712" font-family="Times,serif" font-size="14.00"> &#160;&#160;&#160;né industrial designer.</text>
</g>
<!-- edouard&#45;&gt;role -->
<g id="edge3" class="edge"><title>edouard&#45;&gt;role</title>
<path fill="none" stroke="black" d="M648.898,-499.707C648.898,-471.234 648.898,-435.86 648.898,-408.217"/>
<polygon fill="black" stroke="black" points="652.399,-408.032 648.898,-398.032 645.399,-408.032 652.399,-408.032"/>
</g>
<!-- currently -->
<g id="node6" class="node"><title>currently</title>
<ellipse fill="none" stroke="#529ecc" cx="254.898" cy="-198.456" rx="207.755" ry="25.4118"/>
<text text-anchor="middle" x="254.898" y="-201.256" font-family="Times,serif" font-size="14.00">At Tumblr building a dazzling array of</text>
<text text-anchor="middle" x="254.898" y="-187.256" font-family="Times,serif" font-size="14.00"> &#160;&#160;&#160;digital products for millions of creative people.</text>
</g>
<!-- role&#45;&gt;currently -->
<g id="edge4" class="edge"><title>role&#45;&gt;currently</title>
<path fill="none" stroke="black" d="M588.629,-336.214C516.585,-306.691 396.399,-257.441 321.616,-226.796"/>
<polygon fill="black" stroke="black" points="322.857,-223.522 312.277,-222.969 320.203,-229.999 322.857,-223.522"/>
<text text-anchor="middle" x="408.164" y="-244.712" font-family="Times,serif" font-size="14.00">currently</text>
</g>
<!-- based_in -->
<g id="node7" class="node"><title>based_in</title>
<polygon fill="none" stroke="black" points="616.999,-216.456 480.798,-216.456 480.798,-180.456 616.999,-180.456 616.999,-216.456"/>
<text text-anchor="middle" x="548.898" y="-194.256" font-family="Times,serif" font-size="14.00">New York, New York</text>
</g>
<!-- role&#45;&gt;based_in -->
<g id="edge5" class="edge"><title>role&#45;&gt;based_in</title>
<path fill="none" stroke="black" d="M629.142,-329.013C610.343,-298.662 582.409,-253.561 564.947,-225.367"/>
<polygon fill="black" stroke="black" points="567.911,-223.506 559.67,-216.847 561.96,-227.191 567.911,-223.506"/>
<text text-anchor="middle" x="604.031" y="-244.712" font-family="Times,serif" font-size="14.00">based in</text>
</g>
<!-- previously -->
<g id="node8" class="node"><title>previously</title>
<polygon fill="none" stroke="black" points="862.574,-223.456 635.223,-223.456 635.223,-173.456 862.574,-173.456 862.574,-223.456"/>
<text text-anchor="middle" x="748.898" y="-208.256" font-family="Times,serif" font-size="14.00">I was at</text>
<text text-anchor="middle" x="748.898" y="-194.256" font-family="Times,serif" font-size="14.00"> &#160;&#160;&#160;International Business Machines</text>
<text text-anchor="middle" x="748.898" y="-180.256" font-family="Times,serif" font-size="14.00"> &#160;&#160;&#160;building many things. Ask about it.</text>
</g>
<!-- role&#45;&gt;previously -->
<g id="edge6" class="edge"><title>role&#45;&gt;previously</title>
<path fill="none" stroke="black" d="M668.655,-329.013C685.913,-301.15 710.87,-260.856 728.356,-232.623"/>
<polygon fill="black" stroke="black" points="731.461,-234.256 733.751,-223.912 725.51,-230.57 731.461,-234.256"/>
<text text-anchor="middle" x="751.45" y="-244.712" font-family="Times,serif" font-size="14.00">previously</text>
</g>
<!-- thanks -->
<g id="node11" class="node"><title>thanks</title>
<polygon fill="none" stroke="black" points="672.989,-36 202.808,-36 202.808,-0 672.989,-0 672.989,-36"/>
<text text-anchor="middle" x="437.898" y="-13.8" font-family="Times,serif" font-size="14.00">Thanks for visiting and stay a while. If you want, send me a letter or tweet at me.</text>
</g>
<!-- role&#45;&gt;thanks -->
<g id="edge9" class="edge"><title>role&#45;&gt;thanks</title>
<path fill="none" stroke="black" d="M717.809,-337.844C800.735,-306.258 922.863,-245.163 871.898,-173 817.774,-96.3636 722.074,-57.6274 634.288,-38.1481"/>
<polygon fill="black" stroke="black" points="634.963,-34.7134 624.451,-36.0376 633.494,-41.5576 634.963,-34.7134"/>
<text text-anchor="middle" x="868.95" y="-143.8" font-family="Times,serif" font-size="14.00">cool</text>
</g>
<!-- mornings -->
<g id="node9" class="node"><title>mornings</title>
<polygon fill="none" stroke="#e65a2d" points="217.695,-123 0.101468,-123 0.101468,-73 217.695,-73 217.695,-123"/>
<text text-anchor="middle" x="108.898" y="-107.8" font-family="Times,serif" font-size="14.00">Tending to my experimental</text>
<text text-anchor="middle" x="108.898" y="-93.8" font-family="Times,serif" font-size="14.00"> &#160;&#160;&#160;personal–projects–lab, Mornings.</text>
<text text-anchor="middle" x="108.898" y="-79.8" font-family="Times,serif" font-size="14.00"> &#160;&#160;&#160;(Open for biz)</text>
</g>
<!-- currently&#45;&gt;mornings -->
<g id="edge7" class="edge"><title>currently&#45;&gt;mornings</title>
<path fill="none" stroke="black" d="M219.183,-173.371C199.224,-159.911 174.182,-143.024 153.007,-128.745"/>
<polygon fill="black" stroke="black" points="154.746,-125.696 144.498,-123.007 150.832,-131.5 154.746,-125.696"/>
<text text-anchor="middle" x="201.005" y="-143.8" font-family="Times,serif" font-size="14.00">and</text>
</g>
<!-- public_services -->
<g id="node10" class="node"><title>public_services</title>
<polygon fill="none" stroke="#76c865" points="449.512,-123 236.285,-123 236.285,-73 449.512,-73 449.512,-123"/>
<text text-anchor="middle" x="342.898" y="-107.8" font-family="Times,serif" font-size="14.00">Self&#45;organizing creative events and</text>
<text text-anchor="middle" x="342.898" y="-93.8" font-family="Times,serif" font-size="14.00"> &#160;&#160;&#160;schooling at Public Services</text>
<text text-anchor="middle" x="342.898" y="-79.8" font-family="Times,serif" font-size="14.00"> &#160;&#160;&#160;with some good friends.</text>
</g>
<!-- currently&#45;&gt;public_services -->
<g id="edge8" class="edge"><title>currently&#45;&gt;public_services</title>
<path fill="none" stroke="black" d="M276.651,-173.118C288.054,-160.361 302.161,-144.577 314.424,-130.858"/>
<polygon fill="black" stroke="black" points="317.341,-132.846 321.396,-123.057 312.122,-128.181 317.341,-132.846"/>
<text text-anchor="middle" x="315.005" y="-143.8" font-family="Times,serif" font-size="14.00">and</text>
</g>
<!-- currently&#45;&gt;thanks -->
<g id="edge10" class="edge"><title>currently&#45;&gt;thanks</title>
<path fill="none" stroke="black" d="M379.648,-178.092C410.514,-167.085 440.097,-149.877 458.898,-123 474.974,-100.02 464.501,-67.589 453.371,-45.0764"/>
<polygon fill="black" stroke="black" points="456.395,-43.3071 448.637,-36.0919 450.202,-46.5704 456.395,-43.3071"/>
</g>
<!-- mornings&#45;&gt;thanks -->
<g id="edge11" class="edge"><title>mornings&#45;&gt;thanks</title>
<path fill="none" stroke="black" d="M210.294,-72.961C257.16,-61.8498 312.081,-48.829 356.231,-38.3619"/>
<polygon fill="black" stroke="black" points="357.132,-41.7453 366.055,-36.0327 355.518,-34.9341 357.132,-41.7453"/>
</g>
<!-- public_services&#45;&gt;thanks -->
<g id="edge12" class="edge"><title>public_services&#45;&gt;thanks</title>
<path fill="none" stroke="black" d="M372.177,-72.961C383.959,-63.2867 397.505,-52.1649 409.226,-42.5413"/>
<polygon fill="black" stroke="black" points="411.498,-45.2051 417.005,-36.1544 407.056,-39.795 411.498,-45.2051"/>
</g>
</g>
</svg>
